<?xml version="1.0" encoding="UTF-8"?>
<svg id="flux-and-fire-favicon" xmlns="http://www.w3.org/2000/svg" viewBox="0 0 500 500">
  <rect width="500" height="500" rx="96" fill="#fff8ef"/>
  <g fill="#a34324">
    <path d="M272.18,406.73c7.69-30.47-5.56-59.64-32.09-75.76.59,5.84.7,14.32-2.17,23.72-4.25,13.92-11.82,19.29-20.65,31.08-6.45,8.62-22.44,29.96-21.21,52.56.32,5.91,2.44,23.36,23.37,41.75-10.93,1.44-19.29.87-26.45-2.4-8.12-3.7-12.67-9.57-15.02-12.61-11.06-14.33-48.87-79.33-21.58-126.2,15.18-26.07,33.21-41.91,33.21-41.91,14.3-10.85,22.66-25.35,21.81-43.97-1.02-22.54-8.6-23.47-9.27-29.7-.23-2.14.84-7.37,4.47-7.36l86.89.17c3.05,0,3.98,4.38,4.2,6.17.31,2.52-1.23,5.6-3.13,7.88-5.36,6.42-5.63,14.87-5.97,22.9-.77,17.97,6.95,32.88,21.14,43.47,56.26,41.98,51.9,117.86,11.02,169.87-10.27,13.07-21.42,15.81-40.15,13.63,29.09-23.26,30.07-60.3,7.71-90.81-4.31,7.82-5.97,15.41-16.14,17.51Z"/>
    <path d="M239.8,98.42c-20.8,1.73-39.61,7.63-57.43,17.15-2.68,1.43-5.24-.03-6.63-2.26l-36-57.69c-1.95-3.13-.63-6.61,2.39-8.4,29.72-17.62,62.63-27.36,97.35-28.56,2.39-.08,4.42,2.45,4.42,4.62l-.03,70c0,1.93-1.33,4.92-4.06,5.15Z"/>
    <path d="M316.95,115.62c-19.03-10.91-38.84-15.81-60.74-17.85l-.18-74.51c0-2.41,2.08-4.87,4.65-4.76,34.64,1.42,67.68,11.11,97.26,28.82,2.84,1.7,3.92,5.37,2.24,8.06l-36.58,58.45c-1.04,1.66-3.98,3.32-6.66,1.79Z"/>
    <path d="M457.5,478.2l-64.72.12c-2.69-.4-4.88-2.26-4.88-5.02l-.04-86.24c.48-2.74,2.13-4.52,4.92-5h64.74c3.39.01,5.23,2.7,5.23,5.9v84.41c.01,3.18-1.87,5.83-5.25,5.84Z"/>
    <path d="M458.02,369.83h-65.24c-2.77-.44-4.44-2.19-4.9-4.91l.03-85.37c0-3.11,1.81-5.39,4.84-5.39l64.72-.06c3.31,0,5.3,2.26,5.3,5.53v84.41c0,2.76-1.38,5.01-4.76,5.8Z"/>
    <path d="M106.68,478.27l-64.01.02c-3.29-.35-5.42-2.6-5.42-5.91l.04-84.45c0-3.19,2.04-5.88,5.36-5.88h64.72c2.55.45,4.09,1.97,4.56,4.58l-.05,87.07c-.42,2.54-1.96,4.38-5.22,4.57Z"/>
    <path d="M106.67,369.78l-63.97.03c-3.25,0-5.45-2.67-5.45-5.73l.05-84.48c0-3.21,2.18-5.45,5.39-5.45l64.67-.02c2.48,0,4.18,1.66,4.58,4.15l-.06,87.06c-.45,2.41-2.01,4.44-5.21,4.44Z"/>
    <path d="M378.56,174.29c-2.59,1.2-5.36.5-6.75-2.09-9.13-17.08-21.07-32.02-36.22-44.09-3.56-2.84-3.18-6.14-.86-9.75l35.55-55.35c2.22-3.45,5.85-3.41,8.99-1.02,26.9,20.48,47.85,47.14,62.14,77.78.77,3.92-1.08,5.83-4.23,7.3l-58.61,27.24Z"/>
    <path d="M128.94,170.77c-1.69,3.2-4.43,5.08-7.57,3.61l-61.93-29c-1.52-2.96-.96-5.52.47-8.46,14.57-30,35.68-56.17,62.47-76.2,2.99-2.23,6.4.77,7.9,3.13l35.87,56.54c2.13,3.36.17,6.1-2.38,8.15-14.37,11.52-25.99,25.45-34.82,42.23Z"/>
    <path d="M457.51,261.81l-66.03-.3c-3.75-.02-3.82-5.71-3.73-8.24.78-21.03-.57-40.96-7.48-60.51-1.31-3.7.74-6.25,3.99-7.75l59.97-27.6c9.25-4.26,18.19,47.5,18.33,66.56l.24,31.83c.02,2.98-1.86,6.03-5.3,6.01Z"/>
    <path d="M109.43,261.78l-66.76-.07c-3.47,0-5.49-2.8-5.48-5.9l.07-23.87c.07-24.88,3.94-48.75,12.67-71.84.97-2.57,3.83-3.63,6.23-2.52l61.45,28.42c2.12.98,2.83,4.13,2.07,6.3-6.68,18.94-8.48,38.09-7.68,58.2.15,3.85.62,7.8-2.58,11.29Z"/>
    <path d="M265.9,441.91c1.49,2.22,3.46,5.7,4.68,10.31.79,2.99,1.92,7.45.83,12.65-1.1,5.22-4.73,13.85-12.4,15.36-5.89,1.16-16,2.36-21.36-.58-11.06-6.06-13.47-20.64-11.21-32.08,2.81-14.24,10.92-25.97,22.11-35.42-.08,2.83.11,7.16,1.67,12.06,1.51,4.75,3.16,6.45,4.42,10.56.96,3.14,1.77,7.9.53,14.46.87.09,3.62.24,6.38-1.49,3.18-1.99,4.14-5.09,4.36-5.85Z"/>
  </g>
</svg>
