<?xml version="1.0" encoding="UTF-8"?>
<svg id="Layer_1" data-name="Layer 1" xmlns="http://www.w3.org/2000/svg" viewBox="0 0 1233.75 202.39">
  <path d="M736.5,109.96c-1.59,2.76-9.01-1.12-10.4,8.01-2.16,14.23-10.11,25.89-19.43,36.74,2.23,3.12,5.28,5.02,8.11,7.14,6.26,4.67,13.81,3.46,19.8-1.78,3.99,3.31,6.44,6.53,8.9,10.9-7.51,11.22-18.32,20.12-31.93,21.63-12.19,1.35-23.12-4.31-31.76-13.21-30.76,23.1-86.05,18.18-96.95-18.7-4.82-16.28-1.01-31.86,9.89-44.01,6.4-7.14,14.8-11.36,24.05-15.59-3.47-6.97-6.58-13.58-7.83-21.36-3.26-20.32,9.17-38.79,29.4-43.44,13.53-3.11,23.03-12.01,24.26-27.29,14.97,16.18,26.9,39.09,23.97,59.54-2.12,14.83-12.46,25.88-25.51,32.53,1.77,3.89,4.71,6.89,7.46,10.17l24.47,29.24c7.87-7.3,11.94-21.81,6.38-27.65-1.54-1.62-4.26-1.14-6.39-1.76-3.6-1.05-3.26-14.35.91-14.38l41.84-.27c2,4.01,1.52,12.17.74,13.54ZM650.01,87.16c9.36-4.62,15.36-14.57,13.28-24.7-.94-4.56-4.58-7.8-8.07-8.31-4.35-.64-8.02.93-10.48,4.62-5.8,8.71-1.13,19.09,5.27,28.39ZM641.19,167.37c7.87,1.67,16.27,1.01,23.58-3.46l-35.55-44.48c-6.89,5.2-9.55,12.4-9.48,20.44.11,13.27,8.26,24.72,21.44,27.51Z"/>
  <path d="M147.69,139c-1.8,1.56-9.7,1.5-11.7.47-3.37-1.74.47-14.92-13.61-16-9.45-.72-18.72-.76-28.51.18l.13,36.14c.06,16.84,19.21,13.51,20.4,16.52,1.63,4.15.9,8.72.29,13.9l-84.51.11c-.93-5.52-1.09-10.35.27-15.17,4.82-.74,9.9-1.08,13.2-4.85,3.08-3.52,4.6-9.18,4.6-14.14l.02-63.35c0-10.69.65-21-.83-31.39-1.79-12.6-14.02-9.9-16-12.45-1.06-1.37-1.3-13.95,1.75-13.95l133.76-.17,5.55,40.02c.71,5.11-7.07,5.74-15.52,5.07-2.62-5.7-4.58-11.53-8.84-16.18-10.3-11.25-31.98-8.43-49.14-8.57-2.79-.02-5.24,1.1-5.25,4.41l-.2,40.08c-.01,2.09,1.62,3.69,3.72,3.66l23.72-.36c8.04-.12,12.83-5.03,13.48-12.86.25-3.04,10.06-3.2,12.58-1.81,1.13.62,1.94,2.51,1.94,4.62l.03,41.89c0,1.76-.52,3.49-1.33,4.19Z"/>
  <path d="M881.56,139.79c-3.52-.16.33-16.34-14.21-16.46l-24.3-.19c-2.31-.02-3.69,1.73-3.67,3.89l.23,30.36c.03,4.27,1.32,9.26,4.22,12.51,3.82,4.3,9.96,4.63,15.85,5.12,2.09,4.56,1.99,10.2.28,15.24h-82.03c-.67-5.11-1.74-10.9.63-14.8,3.07-1.57,8.25-1.05,11.05-4.01,3.27-3.45,4.93-8.56,4.93-13.78l-.03-91.66c0-5.5-2.14-11.42-6.62-13.84l-9.71-2.7c-1.23-4.75-1.76-10.26.55-14.68l133.04.09,5.5,41.97c-.85,2.85-6.97,3.46-9.14,3.08-2.2.62-3.99.58-5.51-.02-2.95-1.17-4.51-22.31-26.44-24.19l-33.94-.3c-1.85-.02-2.62,3.7-2.63,5.21l-.2,39.01c-.01,2.17,1.42,3.7,3.65,3.67l24.07-.31c7.81-.1,12.92-6.08,12.51-14.2,4.55-1.86,9.57-2.13,14.21.49l-.26,48.25c-.02,2.78-5.72,2.52-7.67,2.43l-4.34-.2Z"/>
  <path d="M387.03,160.74c.02,10.89,12.64,3.81,14,12.39.36,2.31,1.92,6.61.1,8.89-16.12,4.77-32.36,8.02-49.04,10.24-4.22.56-7.77-1.44-8.02-5.61l-.49-8.27c-12.48,10.47-27.33,16.35-43.57,14.55-9.05-1-17.96-4.35-23.71-11.41-4.91-6.02-7.69-13.82-7.72-21.7l-.22-50.52c-.04-9.9-10.76-7.55-12.16-9.27-1.2-1.47-1.26-8.09-.09-13.6l49.85-6.29c2.17-.27,4.49,1.64,4.5,3.73l.42,67.82c.05,8.47,5.89,14.28,14.12,14.01,7.02-.23,13.51-2.5,18.91-7.27l-.02-49.55c0-10.15-11.03-6.52-13-9.5-.99-1.5-1.35-9.9.65-13.08l49.39-6.12c3.15-.39,5.99,1.75,5.99,4.82l.11,75.71Z"/>
  <path d="M544.29,190.29h-72.42c-1.51-4.28-1.68-8.92-.25-12.86.92-2.53,7.95-1.58,9.03-4.44.65-1.72.34-3.7-.82-5.13l-12.07-14.74-13.61,14.83c-1.25,1.37-1.65,3.44-1.03,5.1,1.4,3.75,8.87,1.47,9.68,4,1.29,4.06,1.1,8.42.12,13.12l-54.45.21c-1.86-4.44-1.51-9.53-.18-14.22,6.45-1,11.82-3.28,16.31-7.79l30.17-30.36-28.02-34.88c-3.54-4.4-7.52-7.36-13.69-7.47-1.68-4.38-1.92-9.18.17-13.87l67.45.25c2.91.01,2.97,11.04,1.56,12.6-2.03,2.25-6.75.48-8.46,3.49-.6,1.06-.42,2.73.76,4.09l10.38,12.04,10.83-11.43c1.28-1.35,1.49-3.6.72-4.96-1.48-2.6-6.03-1.27-7.37-2.83-1.16-1.35-1.49-8.35.3-13.12l48.65-.16c2.28,4.11,1.94,9.18.52,13.74-6.7,1.04-12.35,3.43-16.89,8.16l-24.22,25.3,29.93,37.34c4.49,5.6,9.6,8.89,17.15,9.53.52,4.95.95,8.96-.27,14.44Z"/>
  <path d="M1134.78,137.99c2.48,17.35,13.19,28.14,31.02,28.36,20.39.25,28.39-14.43,32.13-7.71l6.37,11.46c-20.14,22.2-52.65,29.28-80.21,17.57-27.24-11.58-37.25-43.11-27.2-71.57,11.24-31.82,48.21-45.3,78.88-32.46,19.52,8.18,28.8,28.07,27.88,49.01-.12,2.68-2.19,4.86-4.75,4.87l-36.33.09-27.79.38ZM1155.22,120.84c3.92.02,7.23.62,10.31-1.43.82-7.17-1.44-15.26-7.19-20.14-6.49-5.5-16.43-2.41-20.29,4.78-2.81,5.23-3.79,10.94-3.54,16.66l20.71.12Z"/>
  <path d="M178.15,190.31c-1.96-4.05-1.43-12.24-.67-13.54,1.45-2.46,15.84-.92,15.84-14.74V61.79c0-4.24-1.36-9.24-4.74-11.25l-9.1-2.13c-.9-4.48-1.21-9.22.39-13.87l51.1-9.57c3.13-.59,5.19,2.13,5.2,5.05l.06,129.69c0,4.51,1.21,9.04,3.57,12.21,2.29,3.07,7.49,2.21,10.26,3.85,2.94,3.33,2.13,9.75.97,14.44l-72.88.11Z"/>
  <path d="M1045.47,162.32c-.05,11.69,9.33,12.19,18.24,14.6,1.89,3.84,1.36,8.62,0,13.33l-71.91-.05c-3-6.6-2.75-14.69,3.21-15.39,5.11-.6,9.09-4.92,9.09-10.54l-.02-53.65c0-5.52-4.23-8.79-9.31-8.35-5.04.43-5.09-5.96-3.16-13.89l48.04-8.96c7.81-1.46,4.07,10.51,6.1,19.4,6.09-8.9,11.96-16.73,22-19.05,5.5-1.27,11.64-.14,15.91,3.33,8.97,7.27,9.36,24.34-1.13,32.65-4.13,3.28-10.67,3.83-14.93.33-4.17-3.43-8.88-4.99-14.25-2.15-2.5,1.32-7.69,4.85-7.71,8.24l-.17,40.15Z"/>
  <path d="M916.85,190.33c-1.92-4.18-1.44-12.24-.62-13.56,1.54-2.47,14.25-1,14.28-13.18l.12-52.58c0-2.4-1.36-4.92-2.35-6.15-2.55-3.2-7.99-1.14-9.99-3.05-1.55-1.48-1.59-7.76-.36-13.26l49.77-8.8c2.6-.46,5.12,1.78,5.13,4.28l.25,79.58c.02,7.5,5.37,11.67,12.77,12.1,1.44,4.67,1.71,9.73-.01,14.57l-68.99.07Z"/>
  <path d="M968.38,60.02c-9.63,9.59-23.84,9.99-33.7.94-9.52-8.76-7.58-22.99,2.42-30.71,9.84-7.6,21.81-6.79,30.74,1.7,8.04,7.65,9.02,19.63.54,28.08Z"/>
</svg>