<?xml version="1.0" encoding="UTF-8"?>
<svg id="flux-and-fire-logo" xmlns="http://www.w3.org/2000/svg" viewBox="0 0 500 500" role="img" aria-label="Flux and Fire kiln arch and flame logo">
  <g fill="#a34324">
    <path d="M262.49,400.57c-2.22-17.21-4-32.88-13.78-49.95l-28.12,50.54c-12.54,22.53-4.61,43.55,11.11,66.14-50.71-9.19-75-63.48-58.06-108.5,19.3-51.32,66.16-68.89,62.73-131.45,40.75,20.39,57.44,62.77,49.72,108.36,12.31-4.49,12.38-15.03,21.38-24.61,21.34,29.72,30.7,65.77,21.13,101.53-6.97,26.06-29.27,48.84-57.93,54.06,15.34-24.96,21.47-51.46,6.51-75.98-5.15,4.3-7.91,8.3-14.69,9.84Z"/>
    <polygon points="128.35 362.6 50 361.87 50.03 258.68 127.35 259.27 128.35 362.6"/>
    <polygon points="450.31 361.52 371.97 362.22 372.26 258.66 449.6 259.25 450.31 361.52"/>
    <polygon points="450.3 465.55 372.39 466.41 372.21 373.18 449.65 373.39 450.3 465.55"/>
    <polygon points="128.09 465.55 50.53 466.18 50.1 373.69 127.93 373.23 128.09 465.55"/>
    <path d="M371.98,249.29c1.82-23.86-2.94-44.28-9.61-67.2,22.86-12.18,43.45-23.31,68.05-33.34,15.47,30.63,22.68,65.2,18.99,99.34-26.5,2.24-50.66,1.42-77.42,1.19Z"/>
    <path d="M127.62,248.33c-26.79,2.5-51.62,1.57-77.36-1.48-2.8-33.36,4.21-66.14,19.76-97.29,24.51,8.14,45.71,20.37,68.78,33.48-10.31,20.24-10.41,40.92-11.18,65.28Z"/>
    <path d="M142.63,172.25l-66.83-33.27c13.74-31.73,38.25-56.18,68.07-75.15l38.83,63.33c-14.89,13.79-29.07,25.07-40.07,45.09Z"/>
    <path d="M359.49,173.06c-11.92-18.63-23.18-32.62-40.54-46.03l40.12-62.2c28.93,18.56,52,42.31,66.56,73.43-20.29,13.26-41.68,22.36-66.15,34.8Z"/>
    <path d="M310.73,121.44c-18.98-7.8-34.9-12.83-54.95-14.25l.21-73.8c32.49-.47,64.25,7.78,92.39,24.99l-37.65,63.06Z"/>
    <path d="M245.17,107.15c-20.1,1.64-36.49,6.55-54.21,15.9l-37.19-64.7c27.46-16.49,57.58-24.06,90.42-25.65l.97,74.45Z"/>
  </g>
</svg>
